<?xml version="1.0" standalone="no"?>
<!DOCTYPE svg PUBLIC "-//W3C//DTD SVG 20010904//EN"
 "http://www.w3.org/TR/2001/REC-SVG-20010904/DTD/svg10.dtd">
<svg version="1.0" xmlns="http://www.w3.org/2000/svg"
 width="1112.000000pt" height="1146.000000pt" viewBox="0 0 1112.000000 1146.000000"
 preserveAspectRatio="xMidYMid meet">

<g transform="translate(0.000000,1146.000000) scale(0.100000,-0.100000)"
fill="#000000" stroke="none">
<path d="M5155 10948 c-275 -25 -486 -55 -695 -100 -52 -11 -126 -27 -165 -35
-209 -44 -692 -205 -879 -293 -34 -15 -92 -42 -131 -60 -574 -262 -1163 -680
-1604 -1139 -239 -249 -519 -599 -650 -814 -25 -39 -59 -94 -76 -122 -337
-536 -589 -1192 -710 -1855 -62 -342 -78 -539 -79 -955 0 -445 17 -639 93
-1055 9 -50 28 -130 66 -290 17 -73 55 -210 65 -235 4 -11 29 -85 55 -165 26
-80 52 -158 59 -175 8 -16 26 -61 41 -100 81 -202 253 -559 307 -637 10 -14
18 -29 18 -32 0 -7 132 -225 179 -294 56 -84 154 -225 168 -242 6 -8 51 -64
99 -125 285 -358 556 -627 918 -914 144 -114 146 -115 297 -215 229 -151 244
-160 434 -268 64 -36 300 -153 375 -186 25 -11 70 -31 100 -45 272 -122 757
-272 1060 -328 432 -79 655 -100 1070 -100 491 0 858 47 1365 172 502 125
1113 395 1572 696 96 63 285 194 293 203 3 3 48 39 100 80 171 134 292 242
476 425 301 300 470 506 702 855 42 63 82 124 88 135 6 11 33 56 59 100 88
148 295 555 295 581 0 2 9 23 19 47 165 364 328 964 381 1402 6 50 15 126 21
170 5 44 13 232 16 417 6 355 -2 524 -38 803 -17 134 -27 199 -59 370 -16 84
-77 335 -105 430 -14 50 -29 99 -32 110 -3 11 -26 79 -50 150 -181 527 -431
1002 -763 1449 -74 99 -144 192 -155 205 -433 524 -907 927 -1510 1283 -79 47
-393 206 -475 242 -221 95 -537 211 -688 252 -258 70 -257 69 -422 103 -157
32 -198 39 -280 50 -41 6 -109 16 -150 22 -41 6 -127 15 -190 21 -157 13 -762
18 -885 6z m810 -526 c268 -50 443 -107 665 -216 288 -143 552 -344 744 -566
89 -103 214 -267 240 -315 18 -33 32 -56 59 -98 20 -29 117 -222 117 -232 0
-3 11 -28 25 -57 14 -28 25 -59 25 -68 0 -9 3 -20 8 -24 4 -4 21 -51 38 -104
l30 -97 120 -5 c86 -4 128 -10 151 -22 41 -23 91 -84 103 -128 13 -47 13 -974
0 -1020 -11 -39 -51 -88 -91 -114 -23 -14 -1543 -528 -1606 -543 -13 -3 -37
-22 -54 -42 -97 -116 -146 -144 -261 -149 -66 -4 -85 0 -134 22 -64 30 -124
85 -146 136 -34 79 -38 93 -38 137 0 62 17 118 57 180 71 114 216 161 352 114
l53 -19 532 175 c292 96 540 179 551 183 11 5 30 12 43 15 25 7 23 -26 22 355
-1 307 -8 385 -60 605 -66 277 -232 597 -424 815 -323 367 -719 589 -1201 676
-155 28 -509 26 -671 -4 -203 -37 -386 -98 -569 -188 -106 -53 -104 -51 -225
-134 -108 -74 -111 -76 -237 -188 -52 -46 -108 -88 -126 -93 -107 -31 -214 19
-258 119 -37 86 -19 153 66 237 61 62 70 69 190 166 311 252 739 436 1160 500
195 30 562 26 750 -9z m-105 -801 c103 -19 218 -52 252 -71 10 -6 23 -10 28
-10 19 0 175 -77 256 -126 156 -94 318 -237 425 -374 32 -41 62 -79 67 -85 7
-9 43 -66 69 -110 30 -50 112 -226 131 -280 66 -187 96 -374 90 -567 -3 -143
-4 -144 -87 -168 -25 -7 -165 -53 -311 -102 -146 -49 -380 -127 -521 -174
-298 -99 -373 -139 -456 -247 -60 -77 -75 -105 -104 -187 -21 -60 -23 -87 -28
-377 -3 -171 -9 -314 -12 -318 -10 -10 -228 -7 -307 5 -132 18 -194 34 -332
83 -395 139 -740 451 -919 830 -177 373 -204 785 -79 1177 84 262 258 533 454
706 76 67 217 174 228 174 5 0 21 9 36 20 42 30 175 94 266 128 121 46 207 67
379 92 94 14 356 3 475 -19z m185 -3625 c331 -41 644 -107 910 -193 33 -11 80
-26 105 -33 74 -21 120 -37 220 -74 181 -67 225 -84 293 -115 37 -17 70 -31
72 -31 8 0 307 -149 319 -159 6 -5 38 -24 71 -41 80 -44 239 -148 350 -231
247 -184 374 -385 404 -644 17 -139 13 -1661 -3 -1674 -9 -8 -988 -10 -3232
-9 l-3219 3 -3 815 c-2 544 1 843 8 899 29 222 165 439 364 579 252 178 566
355 886 499 353 160 833 302 1235 367 55 9 129 21 165 27 253 41 783 48 1055
15z m-3432 -3567 c42 -19 47 -44 50 -244 l2 -190 255 0 255 0 6 205 c3 113 6
206 7 208 1 2 18 10 38 18 46 19 87 5 104 -35 8 -19 10 -163 8 -494 l-3 -466
-22 -23 c-29 -29 -90 -27 -115 3 -16 19 -18 46 -18 234 0 132 -4 215 -10 217
-5 2 -122 2 -260 0 l-250 -3 0 -212 c-1 -228 -2 -237 -54 -257 -35 -13 -91 11
-100 43 -10 38 -7 934 4 961 6 16 21 29 42 35 18 5 34 10 35 10 1 1 13 -4 26
-10z m1910 -21 c16 -19 17 -58 17 -503 0 -446 -1 -483 -17 -498 -31 -28 -66
-30 -96 -7 l-27 21 0 485 0 485 26 25 c29 30 67 27 97 -8z m1715 26 c51 -14
52 -28 52 -511 0 -267 -4 -463 -10 -484 -11 -40 -44 -61 -81 -52 -34 8 -61 34
-56 54 3 9 1 23 -3 30 -6 9 -15 5 -33 -17 -40 -48 -111 -77 -197 -82 -67 -4
-83 -1 -131 22 -132 63 -199 183 -199 355 0 243 141 393 353 379 81 -6 135
-30 180 -81 15 -17 27 -27 27 -22 0 6 1 93 3 193 2 180 3 184 26 203 25 20 34
22 69 13z m1945 -26 c15 -18 17 -48 17 -299 0 -153 3 -279 6 -279 7 0 24 15
208 185 60 55 115 104 123 108 38 22 104 -34 84 -71 -5 -10 -51 -56 -102 -102
-52 -47 -111 -102 -134 -122 l-40 -37 30 -32 c17 -18 69 -74 116 -123 109
-114 159 -174 159 -191 0 -21 -33 -54 -63 -61 -30 -7 -18 -18 -207 182 -47 50
-105 112 -130 139 l-45 49 -5 -167 c-5 -175 -4 -170 -53 -198 -20 -12 -50 -4
-72 17 -13 13 -15 81 -15 492 0 262 3 487 6 499 7 25 49 44 79 36 11 -2 28
-14 38 -25z m-508 -283 c70 -10 153 -43 166 -67 6 -11 8 -31 5 -44 -8 -29 -47
-32 -104 -8 -20 8 -77 18 -127 21 -112 7 -156 -8 -182 -62 -31 -66 1 -94 152
-133 112 -29 133 -35 165 -50 95 -42 130 -95 130 -190 0 -128 -105 -214 -268
-221 -91 -3 -147 8 -232 46 -90 40 -108 67 -73 105 22 24 46 23 96 -5 79 -44
189 -59 269 -37 72 21 111 103 72 158 -22 31 -55 46 -172 76 -141 36 -204 61
-235 94 -90 95 -46 248 88 301 38 14 142 30 175 26 14 -2 47 -7 75 -10z
m-3640 -25 c94 -46 155 -136 175 -262 10 -66 6 -96 -14 -110 -6 -4 -127 -8
-268 -8 l-258 0 0 -26 c0 -55 25 -109 70 -154 84 -85 208 -88 336 -8 65 40 86
46 101 26 26 -34 23 -50 -13 -85 -141 -132 -381 -137 -520 -11 -63 58 -97 124
-115 226 -15 87 -2 176 38 256 26 51 94 124 134 142 30 14 69 31 89 38 8 3 56
4 105 3 71 -2 101 -8 140 -27z m1250 1 c56 -32 88 -65 118 -120 76 -138 75
-326 -1 -462 -26 -47 -101 -107 -163 -129 -107 -39 -232 -17 -301 54 l-38 38
0 -150 c0 -193 -10 -222 -77 -222 -50 0 -63 21 -63 103 -3 810 -1 871 21 890
43 35 111 6 115 -49 1 -16 3 -31 3 -34 1 -2 19 14 41 35 62 60 108 76 215 72
71 -3 98 -8 130 -26z m1690 -5 c92 -51 149 -142 164 -263 14 -114 29 -108
-277 -111 l-262 -2 0 -35 c0 -50 36 -120 82 -159 82 -71 205 -68 328 8 69 43
82 44 105 10 16 -25 16 -28 -3 -53 -10 -14 -43 -41 -73 -58 -227 -137 -507
-40 -570 197 -59 223 50 440 246 491 17 5 71 7 120 5 75 -3 98 -8 140 -30z"/>
<path d="M5853 2020 c-33 -11 -103 -86 -103 -112 0 -7 -6 -20 -12 -27 -20 -19
-16 -236 5 -283 47 -104 165 -154 265 -113 82 35 123 106 130 229 8 133 -31
243 -104 291 -32 21 -134 29 -181 15z"/>
<path d="M3800 2014 c-19 -8 -43 -23 -53 -32 -26 -23 -65 -102 -69 -138 l-3
-29 199 -3 c110 -1 203 1 208 6 14 14 -12 99 -44 143 -16 22 -45 47 -63 55
-44 18 -130 17 -175 -2z"/>
<path d="M5050 2023 c-39 -12 -67 -30 -90 -57 -46 -54 -53 -83 -54 -211 -1
-108 1 -124 23 -165 53 -101 138 -139 243 -110 96 27 157 154 145 303 -12 161
-84 248 -204 246 -26 0 -55 -3 -63 -6z"/>
<path d="M6725 2012 c-61 -29 -109 -98 -117 -167 l-3 -30 205 0 205 0 -3 33
c-4 50 -41 120 -80 150 -47 35 -147 42 -207 14z"/>
</g>
</svg>
