<?xml version="1.0" standalone="no"?>
<!DOCTYPE svg PUBLIC "-//W3C//DTD SVG 20010904//EN"
 "http://www.w3.org/TR/2001/REC-SVG-20010904/DTD/svg10.dtd">
<svg version="1.0" xmlns="http://www.w3.org/2000/svg"
 width="512.000000pt" height="512.000000pt" viewBox="0 0 512.000000 512.000000"
 preserveAspectRatio="xMidYMid meet">

<g transform="translate(0.000000,512.000000) scale(0.100000,-0.100000)"
fill="#000000" stroke="none">
<path d="M2465 4948 c-187 -36 -344 -200 -376 -396 l-12 -72 -171 0 c-158 0
-175 -2 -216 -22 -33 -17 -51 -35 -67 -68 -22 -43 -23 -54 -23 -310 0 -256 1
-267 23 -310 16 -33 34 -51 67 -67 l44 -23 826 0 826 0 44 23 c33 16 51 34 68
67 21 43 22 54 22 310 0 256 -1 267 -22 310 -17 33 -35 51 -68 68 -41 20 -58
22 -216 22 l-171 0 -12 72 c-33 201 -189 361 -385 397 -69 13 -111 13 -181 -1z
m191 -318 c108 -67 106 -234 -4 -302 -51 -31 -133 -31 -184 0 -98 61 -114 196
-33 277 20 19 50 39 68 44 44 14 113 5 153 -19z"/>
<path d="M1047 4309 c-92 -22 -173 -88 -216 -179 l-26 -55 0 -1830 c0 -1783 0
-1831 19 -1880 26 -65 103 -147 169 -176 l52 -24 1515 0 1515 0 52 24 c66 29
143 111 169 176 19 49 19 97 19 1875 0 1778 0 1826 -19 1875 -26 66 -103 147
-169 176 -48 22 -69 24 -249 27 l-198 4 0 -241 0 -241 148 0 c102 0 152 -4
160 -12 17 -17 17 -3159 0 -3176 -17 -17 -2839 -17 -2856 0 -17 17 -17 3159 0
3176 8 8 58 12 160 12 l148 0 0 240 0 240 -177 -1 c-98 -1 -195 -5 -216 -10z"/>
<path d="M2106 3203 c-83 -87 -176 -184 -206 -216 l-53 -58 -132 131 c-85 84
-139 130 -153 130 -11 0 -44 -22 -74 -49 -48 -44 -51 -51 -41 -72 24 -53 326
-475 351 -491 71 -46 90 -28 345 316 268 362 260 350 253 373 -7 21 -102 93
-123 93 -8 0 -83 -71 -167 -157z"/>
<path d="M2732 3028 c-17 -17 -17 -279 0 -296 17 -17 919 -17 936 0 8 8 12 56
12 148 0 92 -4 140 -12 148 -17 17 -919 17 -936 0z"/>
<path d="M2106 2403 c-83 -87 -176 -184 -206 -216 l-53 -58 -132 131 c-85 84
-139 130 -153 130 -11 0 -44 -22 -74 -49 -48 -44 -51 -50 -41 -72 16 -36 322
-472 341 -487 10 -7 28 -16 41 -19 53 -13 80 15 325 346 131 177 240 330 242
339 2 9 1 22 -3 28 -15 21 -105 84 -120 84 -8 0 -83 -71 -167 -157z"/>
<path d="M2732 2228 c-17 -17 -17 -279 0 -296 17 -17 919 -17 936 0 8 8 12 56
12 148 0 92 -4 140 -12 148 -17 17 -919 17 -936 0z"/>
<path d="M2106 1603 c-83 -87 -176 -184 -206 -216 l-53 -58 -132 131 c-85 84
-139 130 -153 130 -11 0 -44 -22 -74 -49 -48 -44 -51 -50 -41 -72 16 -36 322
-472 341 -487 10 -7 28 -16 41 -19 53 -13 80 16 313 330 269 363 261 351 254
374 -7 21 -102 93 -123 93 -8 0 -83 -71 -167 -157z"/>
<path d="M2732 1428 c-17 -17 -17 -279 0 -296 17 -17 919 -17 936 0 8 8 12 56
12 148 0 92 -4 140 -12 148 -17 17 -919 17 -936 0z"/>
</g>
</svg>
