<?xml version="1.0" standalone="no"?>
<!DOCTYPE svg PUBLIC "-//W3C//DTD SVG 20010904//EN"
 "http://www.w3.org/TR/2001/REC-SVG-20010904/DTD/svg10.dtd">
<svg version="1.0" xmlns="http://www.w3.org/2000/svg"
 width="474.000000pt" height="474.000000pt" viewBox="0 0 474.000000 474.000000"
 preserveAspectRatio="xMidYMid meet">

<g transform="translate(0.000000,474.000000) scale(0.100000,-0.100000)"
fill="#000000" stroke="none">
<path d="M2170 4690 c-501 -49 -998 -266 -1361 -597 -398 -362 -644 -820 -736
-1368 -28 -171 -25 -562 6 -745 121 -711 568 -1325 1216 -1671 217 -116 423
-182 733 -235 183 -31 219 -35 350 -31 1003 24 1854 627 2187 1548 183 507
172 1119 -30 1635 -299 766 -1000 1325 -1820 1449 -125 19 -419 27 -545 15z
m1123 -1194 l47 -29 0 -1079 0 -1078 55 0 55 0 0 -70 0 -70 -280 0 -280 0 0
1126 0 1126 -22 -6 c-13 -3 -192 -82 -398 -175 l-375 -170 -3 -112 c-2 -103
-1 -111 15 -104 24 9 273 95 295 102 16 5 254 -126 301 -165 16 -14 17 -62 17
-744 l0 -728 55 0 55 0 0 -75 0 -75 -280 0 -280 0 0 790 c0 497 -4 790 -10
790 -5 0 -121 -39 -257 -86 -136 -47 -304 -105 -373 -129 -69 -24 -133 -46
-142 -50 -17 -7 -18 -48 -18 -666 l0 -659 -100 0 -100 0 0 70 c0 68 1 70 25
70 l25 0 0 644 0 643 308 105 307 105 3 174 c1 95 6 177 11 182 5 5 251 121
547 257 l538 247 105 -65 c58 -36 127 -79 154 -96z m-1143 -1040 c0 -110 -2
-125 -17 -130 -104 -32 -550 -156 -560 -156 -10 0 -13 26 -13 109 l0 109 48
16 c26 9 151 52 277 96 127 43 238 79 248 79 15 1 17 -11 17 -123z m0 -376 c0
-126 -1 -130 -22 -135 -13 -2 -133 -25 -268 -50 -135 -25 -258 -48 -273 -51
l-28 -6 3 113 3 113 285 72 c157 40 288 73 293 73 4 1 7 -57 7 -129z m0 -390
c0 -71 -4 -130 -9 -130 -18 0 -489 -40 -533 -45 l-48 -6 0 110 c0 106 1 111
23 116 34 8 519 83 545 84 22 1 22 -1 22 -129z m-5 -382 l0 -128 -292 0 -293
0 0 110 0 110 33 1 c17 0 136 9 262 19 127 10 244 17 260 16 l30 -1 0 -127z"/>
</g>
</svg>
