<?xml version="1.0" standalone="no"?>
<!DOCTYPE svg PUBLIC "-//W3C//DTD SVG 20010904//EN"
 "http://www.w3.org/TR/2001/REC-SVG-20010904/DTD/svg10.dtd">
<svg version="1.0" xmlns="http://www.w3.org/2000/svg"
 width="474.000000pt" height="158.000000pt" viewBox="0 0 474.000000 158.000000"
 preserveAspectRatio="xMidYMid meet">

<g transform="translate(0.000000,158.000000) scale(0.100000,-0.100000)"
fill="#000000" stroke="none">
<path d="M2081 1345 c-155 -43 -238 -199 -192 -360 22 -74 108 -158 186 -180
145 -43 292 31 345 171 81 214 -118 430 -339 369z"/>
<path d="M2675 1047 c-24 -13 -49 -40 -63 -65 -21 -37 -23 -55 -23 -152 l1
-110 -34 0 c-50 0 -92 -18 -105 -46 -13 -30 -15 -371 -2 -407 17 -44 48 -48
329 -45 235 3 263 5 279 21 16 16 18 42 21 221 4 239 2 245 -86 254 l-52 5 0
91 c0 50 -5 108 -10 128 -13 44 -52 93 -91 113 -42 22 -117 19 -164 -8z m120
-89 c31 -14 35 -29 38 -146 l2 -92 -72 0 -73 0 0 104 c0 101 1 105 26 125 31
24 43 26 79 9z m19 -440 c36 -51 5 -118 -54 -118 -17 0 -39 9 -50 20 -45 45
-11 120 54 120 25 0 39 -7 50 -22z"/>
<path d="M1880 706 c-99 -27 -176 -102 -205 -199 -20 -67 -20 -189 0 -227 30
-58 43 -60 387 -60 l313 0 -2 247 -3 248 -32 -1 c-18 0 -62 -9 -97 -18 -69
-19 -140 -16 -213 10 -48 17 -88 17 -148 0z"/>
</g>
</svg>
